<?xml version="1.0" encoding="UTF-8"?>
<svg width="900" height="300" viewBox="0 0 900 300" fill="none" xmlns="http://www.w3.org/2000/svg" role="img" aria-labelledby="title desc">
  <title id="title">FrontPost simplified mark light</title>
  <desc id="desc">Deep sea teal four-point star with a smaller sparkle star near its upper-right corner on white tile.</desc>
  <style>
    .tile { fill: #ffffff; }
    .star { fill: #264653; }
  </style>
  <rect class="tile" x="0" y="0" width="900" height="300" rx="32"/>
  <g class="star" transform="translate(300, 150) scale(0.16)">
    <path d="M512 168 C535 348 574 450 856 512 C574 574 535 676 512 856 C489 676 450 574 168 512 C450 450 489 348 512 168 Z"/>
  </g>
  <g class="star" transform="translate(420, 70) scale(0.055)">
    <path d="M512 168 C535 348 574 450 856 512 C574 574 535 676 512 856 C489 676 450 574 168 512 C450 450 489 348 512 168 Z"/>
  </g>
</svg>
